<svg width="28" height="28" viewBox="0 0 28 28" fill="none" xmlns="http://www.w3.org/2000/svg">
<path d="M22.68 15.1667C22.4233 15.1667 22.155 15.085 21.8983 15.0267C21.3786 14.9121 20.8678 14.7601 20.37 14.5717C19.8288 14.3748 19.2338 14.385 18.6997 14.6004C18.1655 14.8158 17.7299 15.2211 17.4767 15.7383L17.22 16.2633C16.0837 15.6312 15.0395 14.8461 14.1167 13.93C13.2006 13.0072 12.4155 11.963 11.7833 10.8267L12.2733 10.5C12.7906 10.2467 13.1959 9.81113 13.4113 9.27698C13.6267 8.74284 13.6369 8.14791 13.44 7.60668C13.2548 7.10783 13.1028 6.59727 12.985 6.07834C12.9267 5.82168 12.88 5.55334 12.845 5.28501C12.7033 4.46323 12.2729 3.71904 11.6312 3.18645C10.9896 2.65387 10.1788 2.36789 9.345 2.38001H5.845C5.3422 2.37529 4.84429 2.47896 4.38516 2.68396C3.92603 2.88896 3.51646 3.19049 3.18433 3.568C2.8522 3.94552 2.60532 4.39017 2.46048 4.87168C2.31564 5.35318 2.27625 5.86024 2.345 6.35834C2.96652 11.246 5.1987 15.7872 8.68892 19.2648C12.1792 22.7423 16.7285 24.9579 21.6183 25.5617H22.0617C22.922 25.5629 23.7526 25.2473 24.395 24.675C24.7641 24.3449 25.0589 23.9402 25.26 23.4877C25.4612 23.0352 25.564 22.5452 25.5617 22.05V18.55C25.5474 17.7396 25.2523 16.9593 24.7267 16.3423C24.2012 15.7253 23.4778 15.3097 22.68 15.1667V15.1667ZM23.2633 22.1667C23.2631 22.3323 23.2276 22.496 23.1592 22.6469C23.0908 22.7978 22.9911 22.9323 22.8667 23.0417C22.7367 23.1549 22.5843 23.2393 22.4195 23.2896C22.2546 23.3398 22.081 23.3548 21.91 23.3333C17.5407 22.7731 13.4823 20.7742 10.3748 17.652C7.26739 14.5298 5.28781 10.4619 4.74833 6.09001C4.72976 5.91911 4.74603 5.74623 4.79616 5.5818C4.8463 5.41737 4.92924 5.26481 5.04 5.13334C5.14932 5.0089 5.2839 4.90916 5.43477 4.84076C5.58564 4.77237 5.74935 4.73689 5.915 4.73668H9.415C9.6863 4.73064 9.95122 4.81937 10.1642 4.98759C10.3771 5.15581 10.5247 5.39301 10.5817 5.65834C10.6283 5.97723 10.6867 6.29223 10.7567 6.60334C10.8914 7.21834 11.0708 7.82272 11.2933 8.41168L9.66 9.17001C9.52034 9.23408 9.39472 9.32511 9.29035 9.43787C9.18597 9.55063 9.1049 9.68289 9.05178 9.82707C8.99866 9.97125 8.97455 10.1245 8.98082 10.278C8.98709 10.4315 9.02363 10.5823 9.08833 10.7217C10.7674 14.3182 13.6584 17.2093 17.255 18.8883C17.539 19.005 17.8576 19.005 18.1417 18.8883C18.2872 18.8363 18.4209 18.7559 18.535 18.6517C18.6492 18.5476 18.7415 18.4218 18.8067 18.2817L19.53 16.6483C20.1331 16.864 20.7487 17.0432 21.3733 17.185C21.6844 17.255 21.9994 17.3133 22.3183 17.36C22.5837 17.4169 22.8209 17.5646 22.9891 17.7775C23.1573 17.9904 23.246 18.2554 23.24 18.5267L23.2633 22.1667Z" fill="#FFEB83"/>
</svg>
