<svg width="51" height="51" viewBox="0 0 51 51" fill="none" xmlns="http://www.w3.org/2000/svg">
<path d="M17.6259 26.48L29.4178 38.2505C29.6115 38.4458 29.8419 38.6008 30.0958 38.7065C30.3497 38.8123 30.622 38.8668 30.897 38.8667C31.172 38.8667 31.4443 38.8123 31.6982 38.7065C31.952 38.6007 32.1825 38.4457 32.3761 38.2505C32.7641 37.8601 32.9819 37.3321 32.9819 36.7817C32.9819 36.2313 32.7641 35.7033 32.3761 35.313L22.0633 24.8965L32.3756 14.5838C32.7636 14.1935 32.9814 13.6654 32.9814 13.115C32.9814 12.5646 32.7635 12.0366 32.3755 11.6463C32.1826 11.4495 31.9525 11.2929 31.6986 11.1856C31.4446 11.0783 31.172 11.0225 30.8963 11.0213C30.6207 11.0225 30.348 11.0783 30.0941 11.1856C29.8402 11.2929 29.6101 11.4495 29.4172 11.6464L17.6258 23.4175C17.4143 23.6126 17.2456 23.8493 17.1301 24.1129C17.0147 24.3764 16.9551 24.661 16.9551 24.9487C16.9551 25.2365 17.0147 25.521 17.1302 25.7846C17.2456 26.0481 17.4144 26.2849 17.6259 26.48V26.48Z" fill="#2C3531" fill-opacity="0.7"/>
</svg>
