<svg width="34" height="34" viewBox="0 0 34 34" fill="none" xmlns="http://www.w3.org/2000/svg">
<path d="M17 2.83325C13.9942 2.83325 11.1115 4.0273 8.98613 6.15271C6.86072 8.27812 5.66667 11.1608 5.66667 14.1666C5.66667 21.8166 15.6542 30.4583 16.0792 30.8266C16.3358 31.0461 16.6623 31.1667 17 31.1667C17.3377 31.1667 17.6642 31.0461 17.9208 30.8266C18.4167 30.4583 28.3333 21.8166 28.3333 14.1666C28.3333 11.1608 27.1393 8.27812 25.0139 6.15271C22.8885 4.0273 20.0058 2.83325 17 2.83325V2.83325ZM17 27.8374C13.9825 25.0041 8.50001 18.8983 8.50001 14.1666C8.50001 11.9122 9.39554 9.75024 10.9896 8.15618C12.5837 6.56212 14.7457 5.66659 17 5.66659C19.2543 5.66659 21.4164 6.56212 23.0104 8.15618C24.6045 9.75024 25.5 11.9122 25.5 14.1666C25.5 18.8983 20.0175 25.0183 17 27.8374ZM17 8.49992C15.8792 8.49992 14.7837 8.83226 13.8518 9.45492C12.9199 10.0776 12.1936 10.9626 11.7647 11.998C11.3358 13.0335 11.2236 14.1729 11.4422 15.2721C11.6609 16.3713 12.2006 17.381 12.9931 18.1735C13.7856 18.966 14.7953 19.5057 15.8945 19.7244C16.9937 19.943 18.1331 19.8308 19.1685 19.4019C20.204 18.973 21.089 18.2467 21.7117 17.3148C22.3343 16.3829 22.6667 15.2873 22.6667 14.1666C22.6667 12.6637 22.0697 11.2224 21.0069 10.1596C19.9442 9.09694 18.5029 8.49992 17 8.49992ZM17 16.9999C16.4396 16.9999 15.8918 16.8337 15.4259 16.5224C14.96 16.2111 14.5968 15.7686 14.3823 15.2509C14.1679 14.7331 14.1118 14.1634 14.2211 13.6138C14.3304 13.0642 14.6003 12.5594 14.9965 12.1631C15.3928 11.7669 15.8976 11.497 16.4472 11.3877C16.9969 11.2784 17.5666 11.3345 18.0843 11.5489C18.602 11.7634 19.0445 12.1265 19.3558 12.5925C19.6672 13.0584 19.8333 13.6062 19.8333 14.1666C19.8333 14.918 19.5348 15.6387 19.0035 16.1701C18.4721 16.7014 17.7515 16.9999 17 16.9999Z" fill="#FFEB83"/>
</svg>
