<svg width="50" height="50" viewBox="0 0 50 50" fill="none" xmlns="http://www.w3.org/2000/svg">
<path d="M32.375 23.5209L20.5833 11.75C20.3896 11.5548 20.1592 11.3998 19.9054 11.294C19.6515 11.1882 19.3792 11.1338 19.1041 11.1338C18.8291 11.1338 18.5568 11.1882 18.3029 11.294C18.0491 11.3998 17.8187 11.5548 17.625 11.75C17.237 12.1404 17.0192 12.6684 17.0192 13.2188C17.0192 13.7692 17.237 14.2972 17.625 14.6875L27.9375 25.1042L17.625 35.4167C17.237 35.807 17.0192 36.3351 17.0192 36.8855C17.0192 37.4358 17.237 37.9639 17.625 38.3542C17.8179 38.5511 18.048 38.7077 18.3019 38.8149C18.5558 38.9222 18.8285 38.9781 19.1041 38.9792C19.3798 38.9781 19.6525 38.9222 19.9064 38.8149C20.1603 38.7077 20.3904 38.5511 20.5833 38.3542L32.375 26.5834C32.5865 26.3883 32.7552 26.1515 32.8707 25.888C32.9861 25.6244 33.0457 25.3398 33.0457 25.0521C33.0457 24.7644 32.9861 24.4798 32.8707 24.2163C32.7552 23.9527 32.5865 23.716 32.375 23.5209V23.5209Z" fill="#2C3531" fill-opacity="0.7"/>
</svg>
