<svg width="70" height="70" viewBox="0 0 70 70" fill="none" xmlns="http://www.w3.org/2000/svg">
<path d="M57.2542 10.6458C56.9153 10.3717 56.5194 10.1771 56.0954 10.0761C55.6714 9.97516 55.2302 9.97051 54.8042 10.0625C51.6875 10.7157 48.4702 10.724 45.3502 10.087C42.2302 9.44992 39.2736 8.181 36.6625 6.35834C36.1743 6.01963 35.5942 5.83813 35 5.83813C34.4058 5.83813 33.8257 6.01963 33.3375 6.35834C30.7264 8.181 27.7698 9.44992 24.6498 10.087C21.5298 10.724 18.3125 10.7157 15.1958 10.0625C14.7698 9.97051 14.3286 9.97516 13.9046 10.0761C13.4807 10.1771 13.0847 10.3717 12.7458 10.6458C12.4074 10.9204 12.1349 11.2672 11.9481 11.6609C11.7614 12.0546 11.6652 12.4851 11.6667 12.9208V34.65C11.6641 38.8318 12.6606 42.9536 14.5732 46.6724C16.4859 50.3911 19.2593 53.5991 22.6625 56.0292L33.3083 63.6125C33.8023 63.9642 34.3936 64.1532 35 64.1532C35.6064 64.1532 36.1977 63.9642 36.6917 63.6125L47.3375 56.0292C50.7407 53.5991 53.5141 50.3911 55.4268 46.6724C57.3394 42.9536 58.3359 38.8318 58.3333 34.65V12.9208C58.3348 12.4851 58.2387 12.0546 58.0519 11.6609C57.8652 11.2672 57.5926 10.9204 57.2542 10.6458ZM52.5 34.65C52.5022 37.9014 51.7279 41.1063 50.2415 43.998C48.7551 46.8897 46.5995 49.3846 43.9542 51.275L35 57.6625L26.0458 51.275C23.4005 49.3846 21.245 46.8897 19.7585 43.998C18.2721 41.1063 17.4978 37.9014 17.5 34.65V16.275C23.6146 16.7984 29.7385 15.3797 35 12.2208C40.2616 15.3797 46.3854 16.7984 52.5 16.275V34.65Z" fill="#FFEB83"/>
</svg>
