<svg fill="none" height="15" viewBox="0 0 21 15" width="21" xmlns="http://www.w3.org/2000/svg"><path d="m20.2854.514582c-.1355-.136687-.2968-.245179-.4746-.319216-.1777-.074038-.3683-.112156-.5608-.112156s-.3831.038118-.5608.112156c-.1777.074037-.339.182529-.4746.319216l-10.86459 10.879118-4.56459-4.57912c-.14076-.13597-.30692-.24289-.489-.31464-.18208-.07176-.37651-.10695-.57219-.10356-.19568.00338-.38878.04528-.56827.12329-.179488.07801-.341854.19061-.477827.33137s-.242889.30693-.314645.48901-.106946.37651-.10356.57219c.003385.19568.04528.38877.123291.56826s.190612.34186.331372.47783l5.599999 5.59997c.13557.1367.29687.2452.47458.3192.17771.0741.36832.1122.56084.1122s.38313-.0381.56084-.1122c.17771-.074.339-.1825.47458-.3192l11.89997-11.89997c.1481-.13656.2662-.3023.347-.48678s.1225-.38369.1225-.58509-.0417-.40062-.1225-.5851c-.0808-.184474-.1989-.350216-.347-.486778z" fill="#000"/></svg>