<svg width="70" height="70" viewBox="0 0 70 70" fill="none" xmlns="http://www.w3.org/2000/svg">
<path d="M55.4167 20.4167H52.5V17.5C52.5 15.1794 51.5781 12.9538 49.9372 11.3128C48.2962 9.67187 46.0707 8.75 43.75 8.75H14.5833C12.2627 8.75 10.0371 9.67187 8.39616 11.3128C6.75522 12.9538 5.83334 15.1794 5.83334 17.5V17.5V52.5C5.83334 54.8206 6.75522 57.0462 8.39616 58.6872C10.0371 60.3281 12.2627 61.25 14.5833 61.25H55.4167C57.7373 61.25 59.9629 60.3281 61.6039 58.6872C63.2448 57.0462 64.1667 54.8206 64.1667 52.5V29.1667C64.1667 26.846 63.2448 24.6204 61.6039 22.9795C59.9629 21.3385 57.7373 20.4167 55.4167 20.4167ZM14.5833 14.5833H43.75C44.5236 14.5833 45.2654 14.8906 45.8124 15.4376C46.3594 15.9846 46.6667 16.7265 46.6667 17.5V20.4167H14.5833C13.8098 20.4167 13.0679 20.1094 12.5209 19.5624C11.974 19.0154 11.6667 18.2735 11.6667 17.5C11.6667 16.7265 11.974 15.9846 12.5209 15.4376C13.0679 14.8906 13.8098 14.5833 14.5833 14.5833V14.5833ZM58.3333 43.75H55.4167C54.6431 43.75 53.9013 43.4427 53.3543 42.8957C52.8073 42.3487 52.5 41.6069 52.5 40.8333C52.5 40.0598 52.8073 39.3179 53.3543 38.7709C53.9013 38.224 54.6431 37.9167 55.4167 37.9167H58.3333V43.75ZM58.3333 32.0833H55.4167C53.096 32.0833 50.8704 33.0052 49.2295 34.6461C47.5885 36.2871 46.6667 38.5127 46.6667 40.8333C46.6667 43.154 47.5885 45.3796 49.2295 47.0205C50.8704 48.6615 53.096 49.5833 55.4167 49.5833H58.3333V52.5C58.3333 53.2735 58.0261 54.0154 57.4791 54.5624C56.9321 55.1094 56.1902 55.4167 55.4167 55.4167H14.5833C13.8098 55.4167 13.0679 55.1094 12.5209 54.5624C11.974 54.0154 11.6667 53.2735 11.6667 52.5V25.7542C12.6037 26.0838 13.59 26.2515 14.5833 26.25H55.4167C56.1902 26.25 56.9321 26.5573 57.4791 27.1043C58.0261 27.6513 58.3333 28.3931 58.3333 29.1667V32.0833Z" fill="#FFEB83"/>
</svg>
