<svg width="70" height="70" viewBox="0 0 70 70" fill="none" xmlns="http://www.w3.org/2000/svg">
<path d="M58.3334 28.2042V27.7084C58.3511 22.7469 56.7769 17.9107 53.8422 13.9102C50.9075 9.90979 46.767 6.95615 42.0292 5.48335H41.8542C39.4073 4.73737 36.8577 4.38299 34.3001 4.43335C28.2095 4.76758 22.4762 7.41345 18.27 11.831C14.0639 16.2485 11.7021 22.1046 11.6667 28.2042C9.95758 28.8054 8.47723 29.9224 7.43001 31.4009C6.3828 32.8794 5.82037 34.6465 5.82037 36.4584C5.82037 38.2702 6.3828 40.0373 7.43001 41.5158C8.47723 42.9943 9.95758 44.1113 11.6667 44.7125C12.2674 50.4723 14.9886 55.8029 19.301 59.6679C23.6135 63.533 29.2091 65.6563 35.0001 65.625H35.6709C41.2708 65.354 46.5935 63.1075 50.6943 59.2844C54.795 55.4613 57.4085 50.3089 58.0709 44.7417C59.8001 44.1744 61.3095 43.0821 62.3888 41.6168C63.4681 40.1515 64.0637 38.3861 64.0925 36.5664C64.1214 34.7468 63.5822 32.9634 62.5499 31.4645C61.5177 29.9657 60.0438 28.826 58.3334 28.2042V28.2042ZM35.5251 59.7917C31.3029 59.9138 27.179 58.5047 23.9144 55.8244C20.6498 53.1441 18.4648 49.3735 17.7625 45.2084H52.0917C51.3799 49.1514 49.3558 52.7379 46.3483 55.3854C43.3408 58.0328 39.5265 59.5857 35.5251 59.7917ZM55.4167 39.375H14.5834C13.8098 39.375 13.068 39.0677 12.521 38.5207C11.974 37.9738 11.6667 37.2319 11.6667 36.4584C11.6667 35.6848 11.974 34.9429 12.521 34.396C13.068 33.849 13.8098 33.5417 14.5834 33.5417H20.4167C21.1903 33.5417 21.9321 33.2344 22.4791 32.6874C23.0261 32.1404 23.3334 31.3986 23.3334 30.625C23.3334 29.8515 23.0261 29.1096 22.4791 28.5626C21.9321 28.0156 21.1903 27.7084 20.4167 27.7084H17.5C17.6306 24.6826 18.4954 21.7341 20.0198 19.1172C21.5442 16.5003 23.6825 14.2936 26.2501 12.6875V21.875C26.2501 22.6486 26.5573 23.3904 27.1043 23.9374C27.6513 24.4844 28.3932 24.7917 29.1667 24.7917C29.9403 24.7917 30.6821 24.4844 31.2291 23.9374C31.7761 23.3904 32.0834 22.6486 32.0834 21.875V10.4709C32.8751 10.3386 33.6735 10.2509 34.4751 10.2084H35.0001C35.9775 10.2221 36.9525 10.3099 37.9167 10.4709V21.875C37.9167 22.6486 38.224 23.3904 38.771 23.9374C39.318 24.4844 40.0598 24.7917 40.8334 24.7917C41.6069 24.7917 42.3488 24.4844 42.8958 23.9374C43.4428 23.3904 43.7501 22.6486 43.7501 21.875V12.6C44.9873 13.3164 46.1415 14.1674 47.1917 15.1375C48.8733 16.7706 50.2098 18.7248 51.1216 20.8842C52.0335 23.0437 52.5023 25.3643 52.5001 27.7084H49.5834C48.8098 27.7084 48.068 28.0156 47.521 28.5626C46.974 29.1096 46.6667 29.8515 46.6667 30.625C46.6667 31.3986 46.974 32.1404 47.521 32.6874C48.068 33.2344 48.8098 33.5417 49.5834 33.5417H55.4167C56.1903 33.5417 56.9321 33.849 57.4791 34.396C58.0261 34.9429 58.3334 35.6848 58.3334 36.4584C58.3334 37.2319 58.0261 37.9738 57.4791 38.5207C56.9321 39.0677 56.1903 39.375 55.4167 39.375Z" fill="#FFEB83"/>
</svg>
